<?xml version="1.0" standalone="no"?>
<!DOCTYPE svg PUBLIC "-//W3C//DTD SVG 20010904//EN"
 "http://www.w3.org/TR/2001/REC-SVG-20010904/DTD/svg10.dtd">
<svg version="1.0" xmlns="http://www.w3.org/2000/svg"
 width="608.000000pt" height="608.000000pt" viewBox="0 0 608.000000 608.000000"
 preserveAspectRatio="xMidYMid meet">
<metadata>
Created by potrace 1.11, written by Peter Selinger 2001-2013
</metadata>
<g transform="translate(0.000000,608.000000) scale(0.100000,-0.100000)"
fill="#000000" stroke="none">
<path d="M3250 6003 c-19 -10 -60 -42 -91 -73 -31 -30 -91 -80 -133 -110 -42
-30 -76 -57 -76 -61 0 -4 -30 -30 -67 -58 -105 -79 -231 -178 -305 -240 -36
-31 -99 -83 -139 -116 -40 -33 -104 -89 -141 -124 -37 -35 -78 -71 -91 -80
-42 -29 -171 -133 -201 -163 -17 -16 -43 -36 -60 -45 -17 -9 -38 -26 -48 -38
-22 -28 -358 -310 -378 -317 -19 -7 -211 -169 -314 -264 -42 -39 -101 -89
-130 -110 -67 -48 -86 -79 -86 -137 0 -36 -4 -47 -19 -52 -36 -11 -118 -112
-136 -166 -39 -116 15 -246 159 -386 l79 -75 -6 -55 c-3 -30 -12 -62 -20 -72
-8 -9 -24 -35 -35 -57 -12 -23 -43 -60 -71 -83 -27 -23 -60 -63 -73 -89 -22
-45 -23 -57 -25 -337 -1 -159 -7 -321 -12 -360 -6 -38 -11 -131 -11 -207 0
-85 -4 -138 -10 -140 -7 -2 -10 -40 -8 -103 l3 -100 16 35 c9 19 22 55 30 80
7 25 16 50 20 55 4 6 13 30 20 55 7 25 17 48 22 51 10 7 56 -6 140 -40 52 -21
54 -18 59 82 2 50 7 98 11 105 6 8 40 12 113 12 116 0 133 11 65 44 -42 20
-280 252 -330 323 -16 22 -44 74 -62 115 -28 64 -32 84 -32 163 0 115 19 160
104 246 40 39 77 90 98 131 29 59 33 74 29 124 -5 57 -6 58 -86 133 -140 131
-190 254 -143 356 17 39 95 125 112 125 4 0 28 -14 53 -30 24 -17 75 -44 113
-61 37 -17 91 -41 118 -55 28 -13 57 -24 66 -24 8 0 19 -4 25 -9 15 -15 97
-58 312 -165 l202 -101 -30 -45 c-17 -25 -44 -73 -61 -106 l-31 -61 -90 -5
c-80 -5 -93 -9 -126 -35 -40 -33 -67 -100 -57 -143 7 -28 53 -80 70 -80 7 0
19 -8 29 -18 18 -21 14 -66 -10 -114 -8 -15 -14 -43 -14 -62 0 -19 -4 -37 -8
-40 -5 -3 -12 -70 -15 -148 -7 -165 0 -204 65 -338 77 -159 169 -249 328 -323
80 -36 201 -71 287 -82 29 -4 55 -10 58 -15 5 -8 -24 -100 -43 -136 -5 -10
-14 -37 -20 -59 -25 -95 -36 -116 -57 -110 -11 4 -50 9 -87 12 -38 3 -68 10
-68 14 0 5 -15 9 -33 9 -18 0 -41 6 -52 14 -11 7 -49 16 -85 20 -36 4 -74 13
-85 21 -20 12 -133 36 -185 38 -14 1 -31 7 -38 14 -7 7 -28 13 -46 13 -18 0
-53 3 -77 6 -41 5 -45 4 -56 -22 -15 -33 -2 -54 33 -54 13 0 47 -9 76 -20 29
-10 82 -24 118 -29 36 -6 87 -17 115 -25 81 -24 182 -46 208 -46 12 0 27 -4
33 -8 14 -13 87 -32 121 -32 17 0 44 -7 62 -16 25 -13 31 -20 26 -37 -17 -58
-30 -93 -37 -102 -4 -5 -8 -19 -8 -31 0 -13 -4 -26 -10 -29 -5 -3 -10 -19 -10
-35 0 -16 -4 -31 -9 -34 -5 -3 -11 -18 -14 -33 -4 -23 -55 -170 -80 -233 -3
-8 -16 -46 -28 -85 -12 -38 -32 -90 -44 -115 -46 -93 -37 -225 17 -259 57 -36
87 -48 128 -54 25 -4 101 -15 170 -26 69 -11 178 -22 243 -26 130 -8 135 -12
90 -66 -15 -17 -37 -50 -48 -73 -12 -23 -28 -51 -36 -64 -17 -27 -3 -55 28
-60 19 -3 63 42 63 64 0 4 6 15 14 23 8 9 25 34 38 56 13 22 32 55 43 72 l20
33 100 2 c55 1 136 2 180 1 44 0 132 -1 195 -2 l115 -1 14 -32 c15 -39 38 -87
50 -108 5 -8 13 -26 19 -40 37 -92 43 -100 70 -100 15 0 34 5 42 10 13 9 13
12 -2 24 -10 7 -18 22 -18 33 0 18 -29 83 -76 175 -22 41 2 58 79 58 102 0
317 30 442 62 139 35 365 141 430 202 33 31 35 37 35 95 0 58 -7 82 -52 161
-11 21 -22 46 -48 110 -13 30 -37 87 -55 125 -18 39 -40 86 -48 105 -8 19 -35
78 -60 130 -24 52 -91 196 -147 320 -57 124 -107 230 -112 237 -6 7 -6 18 -2
25 16 26 39 48 50 48 6 0 19 9 29 20 10 11 22 20 27 20 4 0 30 16 57 35 26 19
52 35 56 35 4 0 42 25 85 55 43 30 81 55 85 55 4 0 42 25 85 55 43 30 81 55
85 55 4 0 19 9 34 19 l27 20 14 -102 c23 -182 27 -211 44 -297 25 -131 37
-171 64 -217 19 -35 29 -43 52 -43 32 0 76 45 86 88 10 42 12 42 45 13 48 -45
156 -99 218 -112 101 -19 235 2 337 54 64 32 141 99 169 145 5 9 10 60 9 112
-1 86 -4 101 -34 165 -18 39 -47 88 -64 110 -50 67 -271 303 -306 328 -20 14
-20 16 53 168 42 87 110 206 156 274 44 65 81 130 81 143 0 47 -46 74 -195
112 -22 5 -80 10 -130 10 -78 0 -100 -4 -170 -32 -63 -25 -92 -45 -140 -93
-53 -52 -135 -168 -135 -190 0 -6 -8 -25 -41 -100 -16 -37 -64 -223 -80 -310
-18 -102 -23 -112 -74 -151 -60 -46 -83 -61 -112 -73 -11 -6 -24 -14 -27 -20
-4 -6 -22 -18 -40 -26 -19 -9 -51 -31 -72 -49 -22 -18 -56 -40 -77 -50 -21 -9
-52 -29 -70 -44 -18 -15 -42 -33 -54 -39 -13 -7 -33 -19 -45 -25 -13 -7 -42
-28 -65 -46 -23 -17 -45 -32 -50 -32 -14 0 -113 205 -113 234 0 9 4 16 9 16 8
0 63 45 235 194 82 70 214 203 261 262 22 27 65 78 96 114 31 36 64 79 73 97
9 18 34 58 56 89 22 32 40 62 40 69 0 6 14 33 31 61 47 73 86 178 120 324 4
19 13 55 19 80 20 75 7 359 -20 445 -12 39 -25 86 -30 105 -4 19 -21 64 -38
100 l-31 65 45 44 c53 52 64 75 64 140 0 174 -160 188 -323 28 l-59 -57 -61
14 c-34 8 -115 17 -179 21 -65 4 -118 12 -118 17 0 11 108 165 121 174 5 3 21
29 36 57 29 59 68 117 131 196 75 94 103 170 83 222 -5 15 -67 82 -138 150
-70 68 -182 178 -248 244 -158 157 -379 364 -422 394 -44 32 -124 39 -173 14z
m1295 -1401 c25 -34 25 -108 -1 -151 -10 -17 -35 -43 -56 -56 -21 -14 -38 -32
-38 -40 0 -7 16 -45 35 -83 19 -38 39 -86 44 -108 6 -21 19 -75 29 -119 69
-282 8 -593 -176 -905 -76 -129 -103 -166 -217 -296 -5 -7 -26 -31 -44 -55
-19 -24 -64 -73 -100 -109 -70 -69 -306 -273 -350 -302 -14 -9 -44 -30 -66
-47 -63 -46 -191 -124 -295 -179 -369 -197 -867 -256 -1242 -147 -90 26 -234
100 -290 150 -56 50 -103 116 -146 205 -53 109 -61 151 -62 287 0 117 5 149
46 294 14 47 22 93 18 102 -3 9 -28 30 -55 46 -30 19 -51 40 -55 55 -9 36 13
91 41 106 14 7 25 17 25 22 0 4 42 8 94 8 l94 0 35 68 c31 59 72 132 118 212
8 13 20 30 27 38 6 7 12 17 12 22 0 4 15 26 33 48 17 22 55 69 82 103 63 80
244 267 288 296 17 12 43 33 57 45 66 61 205 149 325 207 164 79 293 120 495
160 218 42 444 51 685 27 94 -10 181 -21 195 -26 14 -5 44 -12 66 -15 40 -6
44 -4 85 40 119 127 215 162 264 97z m616 -1277 c85 -18 157 -48 165 -69 3 -9
-11 -40 -33 -73 -22 -32 -51 -75 -64 -95 -13 -21 -27 -38 -31 -38 -6 0 -43
-74 -127 -254 -37 -80 -43 -88 -63 -81 -48 15 -113 23 -122 15 -15 -14 2 -27
44 -33 53 -7 124 -53 190 -124 29 -32 82 -87 116 -123 l63 -65 -82 0 c-77 0
-85 -2 -137 -36 -103 -67 -327 -286 -362 -354 -12 -22 -33 -73 -48 -114 -32
-90 -52 -107 -80 -71 -23 29 -37 71 -51 150 -5 30 -14 78 -19 105 -35 176 -50
429 -31 517 32 144 65 278 83 332 49 152 151 311 228 358 32 19 116 52 155 61
43 10 137 6 206 -8z m-4214 -805 c11 -25 37 -81 58 -125 79 -169 86 -197 69
-263 -6 -20 -11 -14 -39 45 -17 37 -40 93 -50 123 -10 30 -21 64 -25 75 -22
58 -42 136 -45 180 -3 30 -2 42 3 30 4 -11 17 -40 29 -65z m269 -238 c26 -24
15 -32 -46 -32 l-59 0 -24 53 c-13 28 -29 68 -37 87 -7 19 -17 39 -22 45 -4 5
-8 15 -8 23 0 8 41 -26 91 -74 50 -49 97 -95 105 -102z m-269 13 c14 -38 41
-103 61 -143 19 -40 33 -74 30 -77 -2 -3 -29 4 -59 14 l-54 19 -6 59 c-8 66
-9 249 -2 218 2 -11 16 -51 30 -90z m4369 32 c34 -22 86 -95 110 -152 21 -50
19 -193 -3 -225 -33 -48 -68 -79 -123 -108 -89 -47 -121 -54 -257 -53 -155 1
-173 9 -173 76 0 60 11 84 81 180 62 86 73 95 115 95 45 0 82 -96 54 -140 -12
-19 -141 -20 -164 -1 -18 15 -37 6 -30 -14 8 -21 60 -35 126 -35 53 0 63 3 90
30 27 27 30 36 25 71 -9 71 -65 129 -123 129 -24 0 -95 -72 -147 -150 -44 -64
-52 -83 -55 -132 -3 -32 -6 -58 -9 -58 -7 0 -58 33 -80 54 -27 23 -29 42 -6
86 31 62 241 265 352 339 66 45 158 48 217 8z m-4437 -137 c0 -92 -4 -123 -20
-155 l-19 -40 4 80 c11 183 19 256 27 243 5 -7 8 -65 8 -128z m2341 -135 c0
-3 -10 -31 -23 -63 -13 -31 -29 -77 -36 -102 -17 -58 -24 -76 -66 -175 -59
-139 -82 -171 -114 -160 -11 3 -29 21 -40 38 -11 18 -29 43 -40 56 -12 13 -40
50 -63 83 -24 32 -62 84 -85 116 -24 31 -43 62 -43 68 0 13 104 29 120 19 5
-3 10 -11 10 -17 0 -6 15 -32 34 -58 33 -46 44 -60 92 -118 l21 -26 18 40 c9
21 21 48 26 59 5 11 27 63 48 115 38 91 41 96 83 112 47 18 58 21 58 13z"/>
<path d="M3564 3955 c-7 -16 28 -188 57 -281 13 -44 13 -283 -1 -383 -12 -91
-40 -175 -77 -233 -12 -21 -23 -41 -23 -45 0 -11 -34 -53 -111 -139 -69 -76
-151 -138 -270 -203 -121 -66 -163 -75 -329 -76 -153 0 -233 15 -292 56 -14
11 -30 19 -35 19 -11 0 -94 86 -120 125 -77 113 -123 393 -93 564 34 199 35
252 3 233 -20 -13 -57 -328 -50 -432 14 -210 82 -381 191 -483 97 -90 208
-127 382 -127 124 0 221 22 324 71 232 114 391 267 482 467 36 80 43 105 64
242 24 159 11 291 -53 530 -27 103 -38 124 -49 95z"/>
<path d="M2952 3944 c-27 -19 -28 -38 -1 -65 14 -14 27 -18 42 -13 39 12 49
50 21 78 -19 20 -34 20 -62 0z"/>
<path d="M2789 3831 c-21 -16 -22 -22 -11 -45 11 -26 34 -32 66 -20 23 9 21
61 -3 74 -25 13 -25 13 -52 -9z"/>
<path d="M2970 3711 c-25 -11 -63 -39 -87 -66 -37 -40 -43 -53 -43 -90 0 -102
118 -116 211 -26 76 74 77 156 2 188 -18 7 -34 13 -35 12 -2 0 -23 -8 -48 -18z
m78 -37 c28 -19 28 -52 0 -94 -44 -64 -144 -94 -168 -50 -21 40 39 125 105
148 40 14 38 14 63 -4z"/>
</g>
</svg>
