<?xml version="1.0" standalone="no"?>
<!DOCTYPE svg PUBLIC "-//W3C//DTD SVG 20010904//EN"
 "http://www.w3.org/TR/2001/REC-SVG-20010904/DTD/svg10.dtd">
<svg version="1.0" xmlns="http://www.w3.org/2000/svg"
 width="608.000000pt" height="608.000000pt" viewBox="0 0 608.000000 608.000000"
 preserveAspectRatio="xMidYMid meet">
<metadata>
Created by potrace 1.14, written by Peter Selinger 2001-2017
</metadata>
<g transform="translate(0.000000,608.000000) scale(0.100000,-0.100000)"
fill="#000000" stroke="none">
<path d="M3254 6004 c-17 -8 -58 -42 -92 -74 -34 -33 -65 -60 -69 -60 -4 0
-22 -14 -40 -30 -18 -17 -36 -30 -42 -30 -5 0 -37 -27 -71 -60 -34 -33 -66
-60 -71 -60 -7 0 -48 -33 -142 -116 -15 -13 -31 -24 -35 -24 -4 0 -21 -12 -39
-27 -46 -42 -115 -99 -186 -156 -16 -12 -42 -34 -58 -49 -16 -16 -32 -28 -35
-28 -3 0 -36 -29 -72 -65 -37 -35 -84 -77 -104 -92 -84 -64 -162 -128 -201
-164 -22 -22 -46 -39 -54 -39 -7 0 -25 -14 -40 -32 -16 -17 -35 -37 -43 -44
-194 -163 -324 -269 -330 -267 -4 1 -28 -18 -54 -43 -26 -24 -51 -44 -55 -44
-9 0 -90 -71 -201 -174 -70 -65 -180 -156 -189 -156 -17 0 -43 -65 -43 -106 1
-34 -3 -44 -18 -49 -10 -3 -41 -30 -69 -60 -61 -68 -86 -135 -77 -209 8 -58
26 -116 37 -116 8 0 39 -57 39 -70 0 -4 39 -46 86 -93 l87 -87 -6 -51 c-4 -29
-12 -59 -20 -68 -7 -9 -22 -33 -32 -54 -18 -35 -62 -82 -97 -104 -50 -30 -86
-145 -79 -250 7 -106 0 -451 -10 -523 -5 -36 -9 -127 -9 -203 0 -90 -4 -136
-10 -132 -6 4 -10 -31 -10 -99 0 -59 4 -108 10 -111 6 -3 10 3 10 15 0 11 4
28 9 38 26 51 71 184 71 210 0 20 72 7 137 -25 75 -36 81 -31 78 68 -2 45 1
93 6 106 9 23 13 24 96 23 49 -1 102 -1 118 0 l30 1 -30 24 c-16 14 -39 28
-49 31 -23 8 -66 47 -191 174 -100 101 -148 162 -160 201 -4 13 -19 47 -33 74
-22 43 -26 63 -26 141 -1 111 12 141 100 234 56 58 76 86 121 170 7 14 13 53
13 87 l0 61 -70 64 c-70 65 -147 167 -167 223 -6 17 -10 46 -9 65 5 78 18 109
68 160 54 55 71 60 90 30 7 -11 17 -20 23 -20 5 0 40 -16 78 -35 37 -19 68
-34 70 -34 8 2 64 -25 87 -41 16 -11 38 -20 49 -20 12 0 33 -7 47 -17 45 -29
145 -80 386 -198 76 -36 116 -61 111 -68 -3 -7 -14 -23 -23 -37 -30 -42 -61
-102 -57 -107 2 -2 -8 -17 -23 -33 -24 -25 -36 -30 -77 -30 -86 0 -121 -11
-163 -49 -33 -30 -41 -44 -46 -87 -6 -47 -4 -53 26 -87 18 -21 38 -37 44 -37
7 0 21 -8 30 -19 14 -15 15 -26 7 -62 -6 -24 -15 -45 -20 -47 -6 -2 -11 -25
-11 -52 0 -27 -4 -50 -9 -52 -5 -1 -10 -75 -11 -163 -2 -155 8 -235 35 -275
18 -27 55 -103 55 -113 0 -15 97 -127 147 -168 26 -21 67 -48 92 -61 25 -13
50 -29 54 -35 4 -7 16 -13 26 -13 10 0 33 -8 52 -17 35 -18 73 -26 199 -44 41
-5 76 -12 78 -14 7 -7 -31 -116 -45 -130 -7 -8 -13 -26 -13 -42 0 -15 -9 -48
-20 -72 -11 -24 -20 -50 -20 -58 0 -12 -7 -14 -32 -8 -18 4 -59 9 -90 12 -32
3 -58 9 -58 14 0 5 -14 9 -32 9 -17 0 -39 7 -48 15 -9 8 -46 17 -89 20 -42 4
-84 13 -98 22 -14 9 -44 17 -67 18 -22 1 -54 7 -69 14 -16 6 -33 9 -38 5 -5
-3 -19 2 -31 10 -12 9 -43 16 -68 16 -25 0 -51 4 -59 9 -21 13 -45 3 -58 -26
-15 -32 -2 -53 32 -53 12 0 42 -7 66 -16 46 -17 51 -18 142 -34 31 -6 76 -17
100 -25 23 -8 58 -16 78 -18 20 -2 40 -7 46 -10 5 -3 32 -9 59 -13 27 -3 51
-9 54 -13 7 -9 96 -31 128 -31 46 0 82 -22 82 -50 0 -26 -21 -95 -33 -106 -4
-4 -7 -18 -7 -30 0 -13 -4 -26 -10 -29 -5 -3 -10 -19 -10 -35 0 -16 -4 -31 -9
-34 -5 -3 -11 -18 -14 -33 -4 -27 -58 -186 -77 -228 -5 -11 -19 -51 -31 -90
-12 -38 -31 -88 -42 -110 -46 -91 -40 -221 11 -262 32 -26 104 -53 154 -58 28
-3 54 -7 57 -10 4 -2 33 -7 65 -10 31 -4 67 -8 79 -11 46 -9 118 -16 198 -19
46 -2 90 -4 97 -4 20 -2 14 -27 -15 -62 -15 -17 -37 -50 -48 -73 -12 -23 -28
-51 -36 -64 -17 -27 -3 -55 28 -60 20 -3 63 42 63 66 0 5 6 15 13 21 8 6 24
30 36 53 12 24 35 59 51 78 l29 35 263 0 c145 0 273 -2 286 -5 23 -5 35 -21
66 -90 9 -19 20 -42 25 -50 5 -8 13 -26 19 -40 39 -97 42 -100 77 -100 39 0
55 18 32 35 -10 7 -17 21 -17 32 0 18 -29 84 -77 175 -13 25 -12 28 9 42 14 9
63 16 128 20 108 6 206 18 288 36 26 6 70 15 97 21 28 6 70 19 95 29 25 10 77
31 115 46 83 31 207 106 235 141 28 36 28 136 0 178 -11 17 -20 38 -20 48 0 9
-4 17 -8 17 -10 0 -45 70 -38 77 2 2 -14 41 -37 86 -22 45 -40 85 -39 90 1 4
-3 7 -8 7 -5 0 -9 3 -8 8 1 4 -6 25 -16 47 -10 22 -25 58 -34 80 -8 22 -20 43
-26 47 -6 4 -7 8 -3 8 5 0 -5 26 -22 57 -17 32 -43 87 -59 123 -16 36 -49 106
-72 155 -24 50 -44 95 -46 102 -1 7 -18 44 -38 83 -28 57 -32 72 -21 77 8 3
15 14 15 24 0 11 10 23 23 28 13 5 29 16 36 25 7 9 17 16 22 16 5 0 31 16 58
35 26 19 52 35 56 35 4 0 42 25 85 55 43 30 81 55 85 55 4 0 41 24 83 53 79
55 105 69 133 72 16 2 27 -49 45 -225 2 -25 7 -52 11 -60 8 -19 9 -26 23 -125
7 -44 16 -88 21 -97 5 -10 9 -26 9 -36 0 -10 5 -23 11 -29 6 -6 17 -22 23 -35
22 -44 98 -28 118 24 4 9 18 24 32 33 26 17 32 15 81 -33 8 -6 19 -12 25 -12
7 0 31 -10 54 -21 22 -12 49 -25 58 -30 24 -12 195 -11 203 1 3 6 26 10 50 10
24 0 47 5 50 10 3 6 17 10 31 10 13 0 24 3 24 8 0 4 15 14 33 21 17 8 58 41
89 73 51 53 57 64 64 115 3 30 4 88 0 127 -5 56 -12 76 -31 96 -14 14 -25 34
-25 44 0 22 -46 81 -185 231 -119 130 -135 146 -167 167 l-21 14 25 50 c15 27
45 90 69 139 23 50 53 104 65 122 13 17 24 35 24 40 0 4 29 50 65 102 76 111
81 138 32 175 -19 15 -46 26 -60 26 -15 0 -27 4 -27 9 0 21 -294 41 -313 22
-6 -6 -20 -11 -31 -11 -32 0 -117 -47 -160 -88 -21 -20 -57 -62 -79 -92 -22
-30 -44 -56 -49 -58 -4 -2 -8 -12 -8 -22 0 -10 -4 -22 -10 -25 -5 -3 -10 -15
-10 -26 0 -10 -4 -27 -9 -37 -24 -48 -51 -131 -51 -161 0 -12 -7 -24 -15 -27
-10 -4 -15 -21 -15 -54 0 -27 -4 -52 -10 -55 -6 -3 -10 -26 -10 -50 0 -24 -4
-47 -10 -50 -5 -3 -10 -19 -10 -35 0 -22 -11 -38 -52 -72 -57 -46 -81 -63
-113 -77 -12 -5 -27 -16 -34 -25 -7 -9 -19 -16 -25 -16 -6 0 -33 -17 -60 -38
-70 -53 -99 -70 -117 -71 -8 -1 -30 -17 -49 -36 -19 -19 -39 -35 -44 -35 -6 0
-22 -9 -36 -20 -14 -11 -33 -20 -42 -20 -9 0 -32 -16 -51 -35 -19 -19 -38 -35
-42 -35 -12 0 -34 33 -35 53 0 10 -7 20 -15 23 -8 4 -15 14 -15 23 0 9 -11 39
-25 66 -26 53 -32 85 -15 85 5 0 31 19 58 42 27 24 76 64 108 90 107 84 424
410 424 435 0 5 18 28 39 53 22 24 38 47 35 51 -2 4 12 24 31 45 19 20 35 43
35 50 0 7 4 15 9 19 5 3 15 22 22 43 6 20 15 39 18 42 12 9 52 78 56 97 2 10
11 36 21 58 10 22 18 43 18 47 1 3 4 9 8 13 4 4 4 13 2 20 -3 7 1 26 9 42 8
15 17 46 20 68 3 22 9 51 12 65 22 83 18 404 -5 435 -9 11 -29 76 -36 119 -6
29 -16 57 -32 86 -43 76 -42 90 14 138 44 38 46 42 51 105 17 202 -153 225
-327 46 -38 -39 -51 -46 -77 -44 -17 1 -36 6 -42 10 -7 3 -47 9 -89 12 -42 2
-95 6 -117 8 -22 1 -50 3 -62 4 -31 1 -29 20 7 61 16 19 29 40 30 46 0 6 15
28 34 49 19 21 45 59 58 84 12 25 25 48 29 51 3 3 11 15 18 27 6 12 40 60 76
107 36 47 65 90 65 96 0 5 4 10 8 10 14 0 29 62 25 104 -3 43 -30 77 -152 191
-155 145 -320 312 -314 319 3 3 1 6 -6 6 -13 0 -33 18 -202 179 -55 52 -115
105 -135 119 -45 30 -125 38 -170 16z"/>
</g>
</svg>
